<svg id="visual" viewBox="0 0 900 600" width="900" height="600" xmlns="http://www.w3.org/2000/svg" xmlns:xlink="http://www.w3.org/1999/xlink" version="1.1"><rect x="0" y="0" width="900" height="600" fill="#fff"></rect><path d="M0 115L16.7 111.3C33.3 107.7 66.7 100.3 100 98.7C133.3 97 166.7 101 200 97.5C233.3 94 266.7 83 300 82.8C333.3 82.7 366.7 93.3 400 102.7C433.3 112 466.7 120 500 122C533.3 124 566.7 120 600 115C633.3 110 666.7 104 700 102C733.3 100 766.7 102 800 101C833.3 100 866.7 96 883.3 94L900 92L900 0L883.3 0C866.7 0 833.3 0 800 0C766.7 0 733.3 0 700 0C666.7 0 633.3 0 600 0C566.7 0 533.3 0 500 0C466.7 0 433.3 0 400 0C366.7 0 333.3 0 300 0C266.7 0 233.3 0 200 0C166.7 0 133.3 0 100 0C66.7 0 33.3 0 16.7 0L0 0Z" fill="#987" stroke-linecap="round" stroke-linejoin="miter"></path></svg>