<svg id="visual" viewBox="0 0 900 600" width="900" height="600" xmlns="http://www.w3.org/2000/svg" xmlns:xlink="http://www.w3.org/1999/xlink" version="1.1"><rect x="0" y="0" width="900" height="600" fill="#292828"></rect><path d="M0 208L18.8 208C37.7 208 75.3 208 112.8 196.2C150.3 184.3 187.7 160.7 225.2 160.8C262.7 161 300.3 185 337.8 197.3C375.3 209.7 412.7 210.3 450.2 202.5C487.7 194.7 525.3 178.3 562.8 179.5C600.3 180.7 637.7 199.3 675.2 196.2C712.7 193 750.3 168 787.8 154C825.3 140 862.7 137 881.3 135.5L900 134L900 0L881.3 0C862.7 0 825.3 0 787.8 0C750.3 0 712.7 0 675.2 0C637.7 0 600.3 0 562.8 0C525.3 0 487.7 0 450.2 0C412.7 0 375.3 0 337.8 0C300.3 0 262.7 0 225.2 0C187.7 0 150.3 0 112.8 0C75.3 0 37.7 0 18.8 0L0 0Z" fill="#FFFFFF" stroke-linecap="round" stroke-linejoin="miter"></path></svg>