<svg id="visual" viewBox="0 0 900 600" width="900" height="600" xmlns="http://www.w3.org/2000/svg" xmlns:xlink="http://www.w3.org/1999/xlink" version="1.1"><rect x="0" y="0" width="900" height="600" fill="#fff"></rect><path d="M0 172L16.7 168C33.3 164 66.7 156 100 154.7C133.3 153.3 166.7 158.7 200 166C233.3 173.3 266.7 182.7 300 175.3C333.3 168 366.7 144 400 140.2C433.3 136.3 466.7 152.7 500 164.3C533.3 176 566.7 183 600 174.2C633.3 165.3 666.7 140.7 700 131.7C733.3 122.7 766.7 129.3 800 133.8C833.3 138.3 866.7 140.7 883.3 141.8L900 143L900 0L883.3 0C866.7 0 833.3 0 800 0C766.7 0 733.3 0 700 0C666.7 0 633.3 0 600 0C566.7 0 533.3 0 500 0C466.7 0 433.3 0 400 0C366.7 0 333.3 0 300 0C266.7 0 233.3 0 200 0C166.7 0 133.3 0 100 0C66.7 0 33.3 0 16.7 0L0 0Z" fill="#987" stroke-linecap="round" stroke-linejoin="miter"></path></svg>